<svg width="18" height="18" viewBox="0 0 18 18" fill="none" xmlns="http://www.w3.org/2000/svg">
<path fill-rule="evenodd" clip-rule="evenodd" d="M0 18H18V0H0V18Z" fill="white" fill-opacity="0.01"/>
<path fill-rule="evenodd" clip-rule="evenodd" d="M9.0004 7.27051C9.2764 7.27051 9.5004 7.49451 9.5004 7.77051V12.3945C9.5004 12.6705 9.2764 12.8945 9.0004 12.8945C8.7244 12.8945 8.5004 12.6705 8.5004 12.3945V7.77051C8.5004 7.49451 8.7244 7.27051 9.0004 7.27051Z" fill="#3B3B3B"/>
<path fill-rule="evenodd" clip-rule="evenodd" d="M9.00039 5.10547C9.40439 5.10547 9.73339 5.43047 9.73339 5.83147C9.73339 6.23147 9.40439 6.55747 9.00039 6.55747C8.59539 6.55747 8.26639 6.23147 8.26639 5.83147C8.26639 5.43047 8.59539 5.10547 9.00039 5.10547Z" fill="#3B3B3B"/>
<path fill-rule="evenodd" clip-rule="evenodd" d="M9.00041 15.0489C12.3354 15.0489 15.0494 12.3349 15.0494 8.99993C15.0494 5.66493 12.3354 2.95093 9.00041 2.95093C5.66441 2.95093 2.95041 5.66493 2.95041 8.99993C2.95041 12.3349 5.66441 15.0489 9.00041 15.0489ZM9.00041 1.95093C12.8874 1.95093 16.0494 5.11293 16.0494 8.99993C16.0494 12.8869 12.8874 16.0489 9.00041 16.0489C5.11241 16.0489 1.95041 12.8869 1.95041 8.99993C1.95041 5.11293 5.11241 1.95093 9.00041 1.95093Z" fill="#3B3B3B"/>
</svg>
